<svg width="960" height="320" viewBox="0 0 960 320" fill="none" xmlns="http://www.w3.org/2000/svg">
  <rect width="960" height="320" rx="44" fill="#06261F"/>
  <g transform="translate(72 56) scale(3.25)">
    <path d="M9.8 44.9C20.5 39.5 31.5 38.8 44.2 43.1C49.5 44.9 53.1 47.2 56 49.7" stroke="#D9F99D" stroke-opacity="0.65" stroke-width="3" stroke-linecap="round"/>
    <path d="M8.8 54.1C22.2 48.8 39.5 49 55.2 54.2" stroke="#6EE7B7" stroke-opacity="0.65" stroke-width="3" stroke-linecap="round"/>
    <path d="M33.9 9.8C24.8 14.3 18.5 23.9 18.5 34.2C18.5 44.1 25.4 50.9 34.6 50.9C43.7 50.9 50.8 43.7 50.8 34.5C50.8 24.6 44.1 15.2 33.9 9.8Z" fill="#6EE7B7"/>
    <path d="M34 9.8C38.5 22.7 37.3 38.6 28 49" stroke="#06261F" stroke-width="3" stroke-linecap="round"/>
    <path d="M33.6 31.6C39 30.4 43.4 27.5 47 23.2" stroke="#06261F" stroke-width="2.6" stroke-linecap="round"/>
    <path d="M30.2 38.7C26.1 36.2 23.1 32.6 21.7 27.9" stroke="#06261F" stroke-width="2.6" stroke-linecap="round"/>
    <path d="M13.6 38.7C23.2 22.5 40.7 12.6 54.4 18.9" stroke="#BAE6FD" stroke-width="2.5" stroke-linecap="round" stroke-dasharray="1 6"/>
    <circle cx="48.8" cy="18.1" r="5.4" fill="#7DD3FC"/>
    <path d="M52.9 11.2C56.5 13.5 58.7 17.6 58.7 22" stroke="#E0F2FE" stroke-opacity="0.7" stroke-width="2.2" stroke-linecap="round"/>
    <path d="M45.3 7.7C48.1 7 51.2 7.3 54 8.8" stroke="#E0F2FE" stroke-opacity="0.45" stroke-width="2.2" stroke-linecap="round"/>
    <circle cx="21.1" cy="43" r="2.5" fill="#ECFCCB"/>
    <circle cx="41.3" cy="45" r="2.5" fill="#ECFDF5"/>
  </g>
  <text x="316" y="141" fill="#F7FEE7" font-family="Inter, Segoe UI, Arial, sans-serif" font-size="84" font-weight="800" letter-spacing="0">AgriOS</text>
  <text x="321" y="197" fill="#A7F3D0" font-family="Inter, Segoe UI, Arial, sans-serif" font-size="28" font-weight="600" letter-spacing="0">Autonomous Farm Operating System</text>
  <path d="M322 224H720" stroke="#38BDF8" stroke-width="6" stroke-linecap="round" stroke-opacity="0.8"/>
</svg>
